<svg id="Layer_1" data-name="Layer 1" xmlns="http://www.w3.org/2000/svg" viewBox="0 0 264.4 252"><defs><style>.cls-1{fill:#c6c6c6;}.cls-2,.cls-3,.cls-4,.cls-7,.cls-9{fill:none;}.cls-2{stroke:#fff;stroke-width:4px;opacity:0.1;}.cls-14,.cls-15,.cls-2,.cls-3,.cls-4,.cls-7,.cls-8,.cls-9{stroke-miterlimit:10;}.cls-14,.cls-3,.cls-8,.cls-9{stroke:#f39200;}.cls-15,.cls-4{stroke:#1d1d1b;stroke-width:0.5px;}.cls-5{fill:#009fe3;}.cls-6{font-size:16.55px;fill:#1d1d1b;}.cls-10,.cls-6{font-family:MonotypeCorsiva, Monotype Corsiva;}.cls-7{stroke:#ffde00;}.cls-7,.cls-8,.cls-9{stroke-width:2px;}.cls-11,.cls-8{fill:#f39200;}.cls-10{font-size:16.55px;}.cls-12,.cls-14{fill:#fcea10;}.cls-13{fill:#fff;opacity:0.5;}.cls-15{fill:#ffde00;}</style></defs><rect class="cls-1" x="12.4" width="252" height="252" rx="4.64"/><line class="cls-2" x1="1.99" y1="144.11" x2="2.01" y2="143.88"/><line class="cls-3" x1="89.29" y1="136.44" x2="95.2" y2="132.54"/><line class="cls-3" x1="100.65" y1="132.72" x2="105.07" y2="138.3"/><line class="cls-4" x1="141.61" y1="101.25" x2="141.61" y2="100.73"/><rect class="cls-5" x="20.19" y="48.35" width="149.18" height="13.84"/><rect class="cls-5" x="27.6" y="68.61" width="156.62" height="13.84"/><rect class="cls-5" x="35.43" y="88.87" width="162.8" height="13.84"/><rect class="cls-5" x="45.37" y="109.13" width="170.96" height="13.84"/><rect class="cls-5" x="52.86" y="129.38" width="178.46" height="13.84"/><rect class="cls-5" x="60.58" y="149.64" width="182.31" height="13.84"/><rect class="cls-5" x="75.32" y="169.9" width="175.29" height="13.84"/><rect class="cls-5" x="84.32" y="190.16" width="172.29" height="13.84"/><text class="cls-6" transform="translate(33.62 59.38) scale(1.1 1)"><tspan xml:space="preserve">Ethereum  was </tspan></text><polyline class="cls-7" points="150.11 133.31 150.34 133.31 149.9 132.95 149.9 132.94 149.89 132.93 138.47 123.56 127.05 132.93 127.04 132.94 127.04 132.95 126.6 133.31 126.06 133.53"/><polyline class="cls-8" points="138.4 140.74 138.4 137.53 138.4 136.29 138.4 136.04 138.4 123.41 138.4 110.27"/><line class="cls-7" x1="138.43" y1="144.02" x2="138.43" y2="160.56"/><line class="cls-7" x1="126.56" y1="138.79" x2="138.37" y2="144.26"/><line class="cls-9" x1="138.43" y1="144.37" x2="150.8" y2="138.79"/><polyline class="cls-9" points="150.52 138.79 150.8 138.79 138.43 161.19 126.06 138.79 126.56 138.79"/><polyline class="cls-7" points="151.36 133.53 151.2 133.53 150.95 133.53 150.9 133.68 150.89 133.68 138.39 140.6 137.85 140.41 125.55 133.57 125.44 133.53"/><text class="cls-10" transform="translate(45.41 100.63)">to make you Rich</text><text class="cls-10" transform="translate(99.61 181.6)">Ethereum was made</text><text class="cls-10" transform="translate(113.6 200.66)">to make you free</text><text class="cls-10" transform="translate(44.01 79.68)">not made</text><path class="cls-11" d="M73.72,149.52a9.11,9.11,0,0,0,1-.51L65,123.16a10.41,10.41,0,0,0-1.07.26Z" transform="translate(12.4)"/><path class="cls-11" d="M72.71,149.94c.35-.13.68-.26,1-.42a9.11,9.11,0,0,0,1-.51A14,14,0,0,0,65,123.16a10.41,10.41,0,0,0-1.07.26c-.35.1-.69.21-1,.34l-.16.07s0,0,0,0A14,14,0,0,0,72.53,150h0Z" transform="translate(12.4)"/><circle class="cls-12" cx="79.85" cy="136.99" r="13.98"/><ellipse class="cls-13" cx="60.21" cy="139.7" rx="6.25" ry="11.65" transform="translate(-32.74 29.96) rotate(-20.52)"/><circle class="cls-14" cx="67.45" cy="136.99" r="9.2" transform="translate(-31.33 32.33) rotate(-20.52)"/><path class="cls-11" d="M59.93,139.8a9.2,9.2,0,0,0,11.28,5.57c-.18.08-.35.16-.54.23a9.19,9.19,0,1,1-6.44-17.22c.18-.07.37-.12.55-.18A9.19,9.19,0,0,0,59.93,139.8Z" transform="translate(12.4)"/><path class="cls-11" d="M79.9,141.75c.28-.13.55-.27.82-.42l-8.1-21.65c-.3.06-.6.13-.9.22Z" transform="translate(12.4)"/><path class="cls-11" d="M79.06,142.11q.43-.17.84-.36c.28-.13.55-.27.82-.42a11.7,11.7,0,0,0-8.1-21.65c-.3.06-.6.13-.9.22s-.58.18-.87.29l-.13,0h0a11.7,11.7,0,0,0,8.2,21.91h0Z" transform="translate(12.4)"/><circle class="cls-12" cx="87.05" cy="131.26" r="11.7"/><ellipse class="cls-13" cx="68.59" cy="133.53" rx="5.23" ry="9.75" transform="translate(-30.05 32.51) rotate(-20.52)"/><circle class="cls-14" cx="74.65" cy="131.26" r="7.7" transform="translate(-28.87 34.49) rotate(-20.52)"/><path class="cls-11" d="M68.35,133.62a7.72,7.72,0,0,0,9.45,4.66,4.32,4.32,0,0,1-.45.19A7.7,7.7,0,0,1,72,124.05l.47-.15A7.71,7.71,0,0,0,68.35,133.62Z" transform="translate(12.4)"/><path class="cls-11" d="M84.29,133.45c.21-.1.41-.2.61-.32l-6-16.13c-.22,0-.44.1-.66.17Z" transform="translate(12.4)"/><path class="cls-11" d="M83.66,133.71c.22-.08.42-.16.63-.26s.41-.2.61-.32a8.72,8.72,0,0,0-6-16.13c-.22,0-.44.1-.66.17s-.44.13-.65.21l-.1,0s0,0,0,0a8.51,8.51,0,0,0-4,3.13,8.72,8.72,0,0,0,10.09,13.19h0Z" transform="translate(12.4)"/><circle class="cls-12" cx="92.78" cy="125.63" r="8.72"/><ellipse class="cls-13" cx="75.86" cy="127.32" rx="3.9" ry="7.27" transform="translate(-27.41 34.66) rotate(-20.52)"/><circle class="cls-14" cx="80.38" cy="125.63" r="5.74" transform="translate(-26.53 36.14) rotate(-20.52)"/><path class="cls-11" d="M75.68,127.39a5.74,5.74,0,0,0,7,3.47l-.33.15a5.74,5.74,0,1,1-4-10.75l.34-.11A5.75,5.75,0,0,0,75.68,127.39Z" transform="translate(12.4)"/><path class="cls-11" d="M84.67,113.19l.57-.14,5.15,13.76a5.12,5.12,0,0,1-.52.27Z" transform="translate(12.4)"/><path class="cls-11" d="M84.12,113.37l.55-.18.57-.14a7.44,7.44,0,0,1,5.15,13.76,5.12,5.12,0,0,1-.52.27,4.38,4.38,0,0,1-.54.23l-.08,0h0A7.45,7.45,0,0,1,79.76,123,7.45,7.45,0,0,1,84,113.41h0Z" transform="translate(12.4)"/><circle class="cls-12" cx="98.93" cy="120.41" r="7.44"/><ellipse class="cls-13" cx="82.68" cy="121.86" rx="3.33" ry="6.2" transform="translate(-25.06 36.71) rotate(-20.52)"/><circle class="cls-14" cx="86.53" cy="120.41" r="4.89" transform="matrix(0.94, -0.35, 0.35, 0.94, -24.31, 37.97)"/><path class="cls-11" d="M82.53,121.91a4.89,4.89,0,0,1,2.58-6.17l-.29.09A4.9,4.9,0,0,0,88.25,125l.28-.13A4.89,4.89,0,0,1,82.53,121.91Z" transform="translate(12.4)"/><line class="cls-4" x1="197.5" y1="110.62" x2="194.1" y2="114.68"/><line class="cls-4" x1="181.62" y1="112.34" x2="186.14" y2="115.11"/><line class="cls-4" x1="201.66" y1="121.92" x2="194.01" y2="119.75"/><line class="cls-4" x1="213.02" y1="135.91" x2="205.37" y2="133.75"/><line class="cls-4" x1="175" y1="125" x2="182.24" y2="121.18"/><line class="cls-4" x1="163.06" y1="139.32" x2="170.3" y2="135.5"/><path class="cls-15" d="M167.64,127.32l-4.95,7.53c-1.15,1.74-3.76,2-5.84.47h0c-2.07-1.49-2.83-4.11-1.68-5.86l5-7.52c1.15-1.75,3.77-2,5.84-.48h0C168,123,168.79,125.58,167.64,127.32Z" transform="translate(12.4)"/><path class="cls-15" d="M157,141.83l-4.95,7.52c-1.15,1.75-3.76,2-5.84.48h0c-2.08-1.49-2.83-4.11-1.68-5.86l4.95-7.52c1.15-1.75,3.76-2,5.84-.48h0C157.43,137.46,158.18,140.08,157,141.83Z" transform="translate(12.4)"/><path class="cls-15" d="M194.62,121.21l3.89,8.12c.9,1.88-.27,4.23-2.62,5.24h0c-2.34,1-5,.3-5.88-1.59l-3.89-8.12c-.9-1.88.27-4.23,2.62-5.24h0C191.08,118.61,193.72,119.32,194.62,121.21Z" transform="translate(12.4)"/><path class="cls-15" d="M172.48,117.5h2.92l.83,9.24H172.1c-2.1,0-3.71-2.07-3.6-4.62a1,1,0,0,1,0-.25c.19-2.32,1.77-4.18,3.68-4.35Z" transform="translate(12.4)"/><path class="cls-15" d="M185.08,122.15c-.1,2.44-1.72,4.42-3.69,4.59l-.29,0h-1.85l-.84-9.25h3.07A3.75,3.75,0,0,1,185,120.7,5.26,5.26,0,0,1,185.08,122.15Z" transform="translate(12.4)"/><path class="cls-15" d="M203.44,136.58l3.88,8.12c.91,1.89-.26,4.24-2.61,5.25h0c-2.35,1-5,.3-5.88-1.59l-3.89-8.12c-.9-1.89.27-4.24,2.61-5.25h0C199.9,134,202.53,134.69,203.44,136.58Z" transform="translate(12.4)"/><line class="cls-4" x1="195.52" y1="133.21" x2="200.03" y2="135.99"/><line class="cls-4" x1="187.49" y1="132.86" x2="184.09" y2="136.93"/><polyline class="cls-7" points="126.53 133.15 126.03 133.15 138.4 109.83 150.77 133.15 150.49 133.15"/></svg>