<svg id="Layer_1" data-name="Layer 1" xmlns="http://www.w3.org/2000/svg" viewBox="0 0 262.34 247.81"><defs><style>.cls-1{fill:#c6c6c6;}.cls-2,.cls-3,.cls-4,.cls-7,.cls-9{fill:none;}.cls-2{stroke:#fff;stroke-width:4px;opacity:0.1;}.cls-14,.cls-15,.cls-2,.cls-3,.cls-4,.cls-7,.cls-8,.cls-9{stroke-miterlimit:10;}.cls-14,.cls-3,.cls-8,.cls-9{stroke:#f39200;}.cls-15,.cls-4{stroke:#1d1d1b;stroke-width:0.5px;}.cls-5{fill:#009fe3;}.cls-6{font-size:16.55px;fill:#1d1d1b;}.cls-10,.cls-6{font-family:MonotypeCorsiva, Monotype Corsiva;}.cls-7{stroke:#ffde00;}.cls-7,.cls-8,.cls-9{stroke-width:2px;}.cls-11,.cls-8{fill:#f39200;}.cls-10{font-size:16.55px;}.cls-12,.cls-14{fill:#fcea10;}.cls-13{fill:#fff;opacity:0.5;}.cls-15{fill:#ffde00;}</style></defs><rect class="cls-1" x="14.53" width="247.81" height="247.81" rx="4.64"/><line class="cls-2" x1="1.99" y1="142.38" x2="2.01" y2="142.15"/><line class="cls-3" x1="89.29" y1="134.72" x2="95.2" y2="130.82"/><line class="cls-3" x1="100.65" y1="130.99" x2="105.07" y2="136.57"/><line class="cls-4" x1="141.61" y1="99.52" x2="141.61" y2="99"/><rect class="cls-5" x="20.19" y="46.62" width="149.18" height="13.84"/><rect class="cls-5" x="27.6" y="66.88" width="156.62" height="13.84"/><rect class="cls-5" x="35.43" y="87.14" width="162.8" height="13.84"/><rect class="cls-5" x="45.37" y="107.4" width="170.96" height="13.84"/><rect class="cls-5" x="52.86" y="127.65" width="178.46" height="13.84"/><rect class="cls-5" x="60.58" y="147.91" width="182.31" height="13.84"/><rect class="cls-5" x="75.32" y="168.17" width="175.29" height="13.84"/><rect class="cls-5" x="84.32" y="188.43" width="172.29" height="13.84"/><text class="cls-6" transform="translate(33.62 57.65) scale(1.1 1)"><tspan xml:space="preserve">Ethereum  was not </tspan></text><polyline class="cls-7" points="150.11 131.58 150.34 131.58 149.9 131.22 149.9 131.21 149.89 131.2 138.47 121.83 127.05 131.2 127.04 131.21 127.04 131.22 126.6 131.58 126.06 131.8"/><polyline class="cls-8" points="138.4 139.01 138.4 135.8 138.4 134.56 138.4 134.31 138.4 121.68 138.4 108.54"/><line class="cls-7" x1="138.43" y1="142.3" x2="138.43" y2="158.83"/><line class="cls-7" x1="126.56" y1="137.06" x2="138.37" y2="142.53"/><line class="cls-9" x1="138.43" y1="142.64" x2="150.8" y2="137.06"/><polyline class="cls-9" points="150.52 137.06 150.8 137.06 138.43 159.46 126.06 137.06 126.56 137.06"/><polyline class="cls-7" points="151.36 131.8 151.2 131.8 150.95 131.8 150.9 131.95 150.89 131.95 138.39 138.87 137.85 138.68 125.55 131.84 125.44 131.8"/><text class="cls-10" transform="translate(45.41 98.9)">to make you Rich</text><text class="cls-10" transform="translate(99.61 179.87)">Ethereum was made</text><text class="cls-10" transform="translate(113.6 198.93)">to make you free</text><text class="cls-10" transform="translate(44.01 77.96)">not made</text><path class="cls-11" d="M73.72,149.52a9.11,9.11,0,0,0,1-.51L65,123.16a10.41,10.41,0,0,0-1.07.26Z" transform="translate(12.4 -1.73)"/><path class="cls-11" d="M72.71,149.94c.35-.13.68-.26,1-.42a9.11,9.11,0,0,0,1-.51A14,14,0,0,0,65,123.16a10.41,10.41,0,0,0-1.07.26c-.35.1-.69.21-1,.34l-.16.07s0,0,0,0A14,14,0,0,0,72.53,150h0Z" transform="translate(12.4 -1.73)"/><circle class="cls-12" cx="79.85" cy="135.26" r="13.98"/><ellipse class="cls-13" cx="60.21" cy="139.7" rx="6.25" ry="11.65" transform="translate(-32.74 28.23) rotate(-20.52)"/><circle class="cls-14" cx="67.45" cy="136.99" r="9.2" transform="translate(-31.33 30.6) rotate(-20.52)"/><path class="cls-11" d="M59.93,139.8a9.2,9.2,0,0,0,11.28,5.57c-.18.08-.35.16-.54.23a9.19,9.19,0,1,1-6.44-17.22c.18-.07.37-.12.55-.18A9.19,9.19,0,0,0,59.93,139.8Z" transform="translate(12.4 -1.73)"/><path class="cls-11" d="M79.9,141.75c.28-.13.55-.27.82-.42l-8.1-21.65c-.3.06-.6.13-.9.22Z" transform="translate(12.4 -1.73)"/><path class="cls-11" d="M79.06,142.11q.43-.17.84-.36c.28-.13.55-.27.82-.42a11.7,11.7,0,0,0-8.1-21.65c-.3.06-.6.13-.9.22s-.58.18-.87.29l-.13,0h0a11.7,11.7,0,0,0,8.2,21.91h0Z" transform="translate(12.4 -1.73)"/><circle class="cls-12" cx="87.05" cy="129.53" r="11.7"/><ellipse class="cls-13" cx="68.59" cy="133.53" rx="5.23" ry="9.75" transform="translate(-30.05 30.78) rotate(-20.52)"/><circle class="cls-14" cx="74.65" cy="131.26" r="7.7" transform="translate(-28.87 32.76) rotate(-20.52)"/><path class="cls-11" d="M68.35,133.62a7.72,7.72,0,0,0,9.45,4.66,4.32,4.32,0,0,1-.45.19A7.7,7.7,0,0,1,72,124.05l.47-.15A7.71,7.71,0,0,0,68.35,133.62Z" transform="translate(12.4 -1.73)"/><path class="cls-11" d="M84.29,133.45c.21-.1.41-.2.61-.32l-6-16.13c-.22,0-.44.1-.66.17Z" transform="translate(12.4 -1.73)"/><path class="cls-11" d="M83.66,133.71c.22-.08.42-.16.63-.26s.41-.2.61-.32a8.72,8.72,0,0,0-6-16.13c-.22,0-.44.1-.66.17s-.44.13-.65.21l-.1,0s0,0,0,0a8.51,8.51,0,0,0-4,3.13,8.72,8.72,0,0,0,10.09,13.19h0Z" transform="translate(12.4 -1.73)"/><circle class="cls-12" cx="92.78" cy="123.9" r="8.72"/><ellipse class="cls-13" cx="75.86" cy="127.32" rx="3.9" ry="7.27" transform="translate(-27.41 32.94) rotate(-20.52)"/><circle class="cls-14" cx="80.38" cy="125.63" r="5.74" transform="translate(-26.53 34.41) rotate(-20.52)"/><path class="cls-11" d="M75.68,127.39a5.74,5.74,0,0,0,7,3.47l-.33.15a5.74,5.74,0,1,1-4-10.75l.34-.11A5.75,5.75,0,0,0,75.68,127.39Z" transform="translate(12.4 -1.73)"/><path class="cls-11" d="M84.67,113.19l.57-.14,5.15,13.76a5.12,5.12,0,0,1-.52.27Z" transform="translate(12.4 -1.73)"/><path class="cls-11" d="M84.12,113.37l.55-.18.57-.14a7.44,7.44,0,0,1,5.15,13.76,5.12,5.12,0,0,1-.52.27,4.38,4.38,0,0,1-.54.23l-.08,0h0A7.45,7.45,0,0,1,79.76,123,7.45,7.45,0,0,1,84,113.41h0Z" transform="translate(12.4 -1.73)"/><circle class="cls-12" cx="98.93" cy="118.69" r="7.44"/><ellipse class="cls-13" cx="82.68" cy="121.86" rx="3.33" ry="6.2" transform="translate(-25.06 34.98) rotate(-20.52)"/><circle class="cls-14" cx="86.53" cy="120.41" r="4.89" transform="matrix(0.94, -0.35, 0.35, 0.94, -24.31, 36.24)"/><path class="cls-11" d="M82.53,121.91a4.89,4.89,0,0,1,2.58-6.17l-.29.09A4.9,4.9,0,0,0,88.25,125l.28-.13A4.89,4.89,0,0,1,82.53,121.91Z" transform="translate(12.4 -1.73)"/><line class="cls-4" x1="197.5" y1="108.89" x2="194.1" y2="112.96"/><line class="cls-4" x1="181.62" y1="110.61" x2="186.14" y2="113.39"/><line class="cls-4" x1="201.66" y1="120.19" x2="194.01" y2="118.02"/><line class="cls-4" x1="213.02" y1="134.18" x2="205.37" y2="132.02"/><line class="cls-4" x1="175" y1="123.27" x2="182.24" y2="119.45"/><line class="cls-4" x1="163.06" y1="137.59" x2="170.3" y2="133.77"/><path class="cls-15" d="M167.64,127.32l-4.95,7.53c-1.15,1.74-3.76,2-5.84.47h0c-2.07-1.49-2.83-4.11-1.68-5.86l5-7.52c1.15-1.75,3.77-2,5.84-.48h0C168,123,168.79,125.58,167.64,127.32Z" transform="translate(12.4 -1.73)"/><path class="cls-15" d="M157,141.83l-4.95,7.52c-1.15,1.75-3.76,2-5.84.48h0c-2.08-1.49-2.83-4.11-1.68-5.86l4.95-7.52c1.15-1.75,3.76-2,5.84-.48h0C157.43,137.46,158.18,140.08,157,141.83Z" transform="translate(12.4 -1.73)"/><path class="cls-15" d="M194.62,121.21l3.89,8.12c.9,1.88-.27,4.23-2.62,5.24h0c-2.34,1-5,.3-5.88-1.59l-3.89-8.12c-.9-1.88.27-4.23,2.62-5.24h0C191.08,118.61,193.72,119.32,194.62,121.21Z" transform="translate(12.4 -1.73)"/><path class="cls-15" d="M172.48,117.5h2.92l.83,9.24H172.1c-2.1,0-3.71-2.07-3.6-4.62a1,1,0,0,1,0-.25c.19-2.32,1.77-4.18,3.68-4.35Z" transform="translate(12.4 -1.73)"/><path class="cls-15" d="M185.08,122.15c-.1,2.44-1.72,4.42-3.69,4.59l-.29,0h-1.85l-.84-9.25h3.07A3.75,3.75,0,0,1,185,120.7,5.26,5.26,0,0,1,185.08,122.15Z" transform="translate(12.4 -1.73)"/><path class="cls-15" d="M203.44,136.58l3.88,8.12c.91,1.89-.26,4.24-2.61,5.25h0c-2.35,1-5,.3-5.88-1.59l-3.89-8.12c-.9-1.89.27-4.24,2.61-5.25h0C199.9,134,202.53,134.69,203.44,136.58Z" transform="translate(12.4 -1.73)"/><line class="cls-4" x1="195.52" y1="131.48" x2="200.03" y2="134.26"/><line class="cls-4" x1="187.49" y1="131.13" x2="184.09" y2="135.2"/><polyline class="cls-7" points="126.53 131.42 126.03 131.42 138.4 108.1 150.77 131.42 150.49 131.42"/></svg>